<?xml version="1.0" encoding="UTF-8" standalone="no"?>
<svg
   xmlns:dc="http://purl.org/dc/elements/1.1/"
   xmlns:cc="http://creativecommons.org/ns#"
   xmlns:rdf="http://www.w3.org/1999/02/22-rdf-syntax-ns#"
   xmlns:svg="http://www.w3.org/2000/svg"
   xmlns="http://www.w3.org/2000/svg"
   viewBox="0 0 400 400"
   height="400"
   width="400"
   xml:space="preserve"
   id="svg2"
   version="1.1"><metadata
     id="metadata8"><rdf:RDF><cc:Work
         rdf:about=""><dc:format>image/svg+xml</dc:format><dc:type
           rdf:resource="http://purl.org/dc/dcmitype/StillImage" /></cc:Work></rdf:RDF></metadata><defs
     id="defs6" /><g
     transform="matrix(1.3333333,0,0,-1.3333333,0,400)"
     id="g10"><g
       transform="translate(87.3441,214.0079)"
       id="g12"><path
         id="path14"
         style="fill:#d41d2c;fill-opacity:1;fill-rule:nonzero;stroke:none"
         d="M 0,0 -29.191,16.024 V -88.857 L 0,-71.796 Z" /></g><g
       transform="translate(150.2362,283.6715)"
       id="g16"><path
         id="path18"
         style="fill:#d41d2c;fill-opacity:1;fill-rule:nonzero;stroke:none"
         d="M 0,0 -92.083,-53.64 -62.892,-69.664 0,-35.069 Z" /></g><g
       transform="translate(210.8739,214.0079)"
       id="g20"><path
         id="path22"
         style="fill:#ea1a2e;fill-opacity:1;fill-rule:nonzero;stroke:none"
         d="M 0,0 -60.638,34.595 V 69.664 L 30.971,16.024 Z" /></g><g
       transform="translate(241.8446,230.0318)"
       id="g24"><path
         id="path26"
         style="fill:#ea1a2e;fill-opacity:1;fill-rule:nonzero;stroke:none"
         d="M 0,0 -30.971,-16.024 V -87.998 L 0,-104.881 Z" /></g><g
       transform="translate(150.2362,120.1754)"
       id="g28"><path
         id="path30"
         style="fill:#ea1a2e;fill-opacity:1;fill-rule:nonzero;stroke:none"
         d="M 0,0 -48.919,26.894 V 81.6 L 0,53.788 Z" /></g><g
       transform="translate(199.2597,147.0689)"
       id="g32"><path
         id="path34"
         style="fill:#d41d2c;fill-opacity:1;fill-rule:nonzero;stroke:none"
         d="M 0,0 -49.023,-26.894 V 26.894 L 0,54.707 Z" /></g><text
       id="text38"
       style="font-variant:normal;font-weight:normal;font-stretch:normal;font-size:58.50630188px;font-family:'Century Gothic';-inkscape-font-specification:CenturyGothic;writing-mode:lr-tb;fill:#ffffff;fill-opacity:1;fill-rule:nonzero;stroke:none"
       transform="matrix(0.99213931,0,0,-1,60.8223,44.4473)"><tspan
         id="tspan36"
         y="0"
         x="0 53.767288 85.126663 110.05035 153.34502">METAL</tspan></text>
<text
       id="text42"
       style="font-variant:normal;font-weight:bold;font-stretch:normal;font-size:12.71640015px;font-family:'Century Gothic';-inkscape-font-specification:CenturyGothic-Bold;writing-mode:lr-tb;fill:#ffffff;fill-opacity:1;fill-rule:nonzero;stroke:none"
       transform="matrix(0.99213614,0,0,-1,88.1919,14.2363)"><tspan
         id="tspan40"
         y="0"
         x="0 19.25263 39.268242 60.046841 76.501862 91.430916 107.37728">COMPLEX</tspan></text>
</g></svg>